<svg width="92" height="44" viewBox="0 0 92 44" fill="none" xmlns="http://www.w3.org/2000/svg">
<path d="M0.484848 44V0.969695H16.1212C20.8081 0.969695 24.7273 1.93939 27.8788 3.87878C31.0303 5.77778 33.3939 8.36364 34.9697 11.6364C36.5455 14.8687 37.3333 18.4646 37.3333 22.4242C37.3333 26.7879 36.4646 30.5859 34.7273 33.8182C32.9899 37.0505 30.5253 39.5556 27.3333 41.3333C24.1818 43.1111 20.4444 44 16.1212 44H0.484848ZM28.9091 22.4242C28.9091 19.6364 28.404 17.1919 27.3939 15.0909C26.3838 12.9495 24.9293 11.2929 23.0303 10.1212C21.1313 8.90909 18.8283 8.30303 16.1212 8.30303H8.84849V36.6667H16.1212C18.8687 36.6667 21.1919 36.0606 23.0909 34.8485C24.9899 33.596 26.4242 31.899 27.3939 29.7576C28.404 27.5758 28.9091 25.1313 28.9091 22.4242ZM64.901 19.2727C62.4364 19.2727 60.2344 19.7576 58.295 20.7273C56.3556 21.6566 54.9616 23.0101 54.1132 24.7879V44H45.992V12.2424H53.4465V19.0303C54.5778 16.8485 56.0122 15.1313 57.7495 13.8788C59.4869 12.6263 61.3253 11.9394 63.2647 11.8182C63.7091 11.8182 64.0526 11.8182 64.295 11.8182C64.5374 11.8182 64.7394 11.8384 64.901 11.8788V19.2727ZM91.4295 19.2121V25.7576H85.187V32.6061H77.8537V25.7576H71.6113V19.2121H77.8537V12.3636H85.187V19.2121H91.4295Z" fill="white"/>
</svg>
