<svg width="41" height="18" viewBox="0 0 41 18" fill="none" xmlns="http://www.w3.org/2000/svg">
<path d="M0.913695 18V0.959999H7.1057C8.9617 0.959999 10.5137 1.344 11.7617 2.112C13.0097 2.864 13.9457 3.888 14.5697 5.184C15.1937 6.464 15.5057 7.888 15.5057 9.456C15.5057 11.184 15.1617 12.688 14.4737 13.968C13.7857 15.248 12.8097 16.24 11.5457 16.944C10.2977 17.648 8.8177 18 7.1057 18H0.913695ZM12.1697 9.456C12.1697 8.352 11.9697 7.384 11.5697 6.552C11.1697 5.704 10.5937 5.048 9.8417 4.584C9.0897 4.104 8.1777 3.864 7.1057 3.864H4.2257V15.096H7.1057C8.1937 15.096 9.1137 14.856 9.8657 14.376C10.6177 13.88 11.1857 13.208 11.5697 12.36C11.9697 11.496 12.1697 10.528 12.1697 9.456ZM26.2225 8.208C25.2465 8.208 24.3745 8.4 23.6065 8.784C22.8385 9.152 22.2865 9.688 21.9505 10.392V18H18.7345V5.424H21.6865V8.112C22.1345 7.248 22.7025 6.568 23.3905 6.072C24.0785 5.576 24.8065 5.304 25.5745 5.256C25.7505 5.256 25.8865 5.256 25.9825 5.256C26.0785 5.256 26.1585 5.264 26.2225 5.28V8.208ZM40.2678 4.094V7.766H36.7658V11.608H32.6518V7.766H29.1498V4.094H32.6518V0.251999H36.7658V4.094H40.2678Z" fill="#F26522"/>
</svg>
